<?xml version="1.0" encoding="UTF-8"?>
<svg xmlns="http://www.w3.org/2000/svg" xmlns:xlink="http://www.w3.org/1999/xlink" width="16px" height="16px" viewBox="0 0 16 16" version="1.1">
<defs>
<filter id="alpha" filterUnits="objectBoundingBox" x="0%" y="0%" width="100%" height="100%">
  <feColorMatrix type="matrix" in="SourceGraphic" values="0 0 0 0 1 0 0 0 0 1 0 0 0 0 1 0 0 0 1 0"/>
</filter>
<mask id="mask0">
  <g filter="url(#alpha)">
<rect x="0" y="0" width="16" height="16" style="fill:rgb(0%,0%,0%);fill-opacity:0.2;stroke:none;"/>
  </g>
</mask>
<clipPath id="clip1">
  <rect x="0" y="0" width="16" height="16"/>
</clipPath>
<g id="surface5" clip-path="url(#clip1)">
<path style=" stroke:none;fill-rule:nonzero;fill:rgb(31.372549%,17.647059%,29.411765%);fill-opacity:1;" d="M 13.101562 3.699219 L 7.449219 9.351562 C 7.25 9.550781 6.9375 9.550781 6.738281 9.351562 L 6.648438 9.261719 C 6.449219 9.0625 6.449219 8.75 6.648438 8.550781 L 12.3125 2.886719 C 12.511719 2.6875 12.824219 2.6875 13.023438 2.886719 L 13.113281 2.976562 C 13.300781 3.1875 13.300781 3.5 13.101562 3.699219 Z M 13.101562 3.699219 "/>
</g>
<mask id="mask1">
  <g filter="url(#alpha)">
<rect x="0" y="0" width="16" height="16" style="fill:rgb(0%,0%,0%);fill-opacity:0.2;stroke:none;"/>
  </g>
</mask>
<clipPath id="clip2">
  <rect x="0" y="0" width="16" height="16"/>
</clipPath>
<g id="surface8" clip-path="url(#clip2)">
<path style=" stroke:none;fill-rule:nonzero;fill:rgb(31.372549%,17.647059%,29.411765%);fill-opacity:1;" d="M 13.914062 10.039062 C 13.988281 9.949219 14.074219 9.863281 14.148438 9.773438 C 14.148438 9.773438 14.164062 9.761719 14.164062 9.761719 C 14.324219 9.574219 14.460938 9.386719 14.601562 9.1875 C 14.601562 9.1875 14.601562 9.1875 14.601562 9.175781 C 15.175781 8.300781 15.5 7.25 15.5 6.113281 C 15.5 3 12.988281 0.488281 9.875 0.488281 C 9.6875 0.488281 9.5 0.5 9.3125 0.511719 C 12.148438 0.8125 14.375 3.210938 14.375 6.125 C 14.375 6.9375 14.199219 7.710938 13.886719 8.414062 C 13.414062 8.238281 12.898438 8.125 12.375 8.125 L 4.613281 8.125 C 5.351562 10.074219 7.148438 11.511719 9.3125 11.726562 C 9.324219 11.726562 9.335938 11.726562 9.351562 11.726562 C 9.414062 11.726562 9.488281 11.738281 9.550781 11.738281 C 9.574219 11.738281 9.585938 11.738281 9.613281 11.738281 C 9.699219 11.738281 9.789062 11.75 9.875 11.75 C 9.988281 11.75 10.113281 11.75 10.226562 11.738281 C 10.261719 11.738281 10.289062 11.738281 10.324219 11.726562 C 10.414062 11.710938 10.5 11.710938 10.585938 11.699219 C 10.613281 11.699219 10.648438 11.6875 10.675781 11.6875 C 10.789062 11.675781 10.898438 11.648438 11.011719 11.625 C 11.023438 11.625 11.039062 11.625 11.050781 11.613281 C 11.148438 11.585938 11.25 11.5625 11.351562 11.539062 C 11.375 11.523438 11.414062 11.523438 11.4375 11.511719 C 11.523438 11.488281 11.613281 11.460938 11.699219 11.425781 C 11.726562 11.414062 11.738281 11.414062 11.761719 11.398438 C 11.875 11.363281 11.976562 11.324219 12.085938 11.273438 C 12.101562 11.273438 12.113281 11.261719 12.125 11.261719 C 12.226562 11.226562 12.3125 11.175781 12.398438 11.136719 C 12.425781 11.125 12.4375 11.113281 12.460938 11.101562 C 12.5625 11.050781 12.648438 11 12.738281 10.949219 C 12.738281 10.949219 12.75 10.949219 12.75 10.9375 C 12.851562 10.875 12.949219 10.8125 13.050781 10.75 C 13.0625 10.75 13.0625 10.738281 13.074219 10.738281 C 13.164062 10.675781 13.25 10.613281 13.335938 10.550781 C 13.351562 10.539062 13.363281 10.539062 13.375 10.523438 C 13.5625 10.375 13.738281 10.226562 13.914062 10.039062 C 13.898438 10.050781 13.914062 10.050781 13.914062 10.039062 Z M 13.914062 10.039062 "/>
</g>
<mask id="mask2">
  <g filter="url(#alpha)">
<rect x="0" y="0" width="16" height="16" style="fill:rgb(0%,0%,0%);fill-opacity:0.2;stroke:none;"/>
  </g>
</mask>
<clipPath id="clip3">
  <rect x="0" y="0" width="16" height="16"/>
</clipPath>
<g id="surface11" clip-path="url(#clip3)">
<path style=" stroke:none;fill-rule:nonzero;fill:rgb(31.372549%,17.647059%,29.411765%);fill-opacity:1;" d="M 13.875 9.625 C 14.113281 10.074219 14.25 10.574219 14.25 11.125 C 14.25 12.851562 12.851562 14.25 11.125 14.25 L 2.375 14.25 C 1.835938 14.25 1.324219 14.113281 0.875 13.875 C 1.398438 14.851562 2.4375 15.5 3.625 15.5 L 12.375 15.5 C 14.101562 15.5 15.5 14.101562 15.5 12.375 C 15.5 11.1875 14.835938 10.164062 13.875 9.625 Z M 13.875 9.625 "/>
</g>
<mask id="mask3">
  <g filter="url(#alpha)">
<rect x="0" y="0" width="16" height="16" style="fill:rgb(0%,0%,0%);fill-opacity:0.8;stroke:none;"/>
  </g>
</mask>
<clipPath id="clip4">
  <rect x="0" y="0" width="16" height="16"/>
</clipPath>
<g id="surface14" clip-path="url(#clip4)">
<path style=" stroke:none;fill-rule:nonzero;fill:rgb(100%,100%,100%);fill-opacity:1;" d="M 1.625 12.6875 C 1.449219 12.6875 1.3125 12.550781 1.3125 12.375 C 1.3125 11.101562 2.351562 10.0625 3.625 10.0625 L 12.375 10.0625 C 12.550781 10.0625 12.6875 10.199219 12.6875 10.375 C 12.6875 10.550781 12.550781 10.6875 12.375 10.6875 L 3.625 10.6875 C 2.699219 10.6875 1.9375 11.449219 1.9375 12.375 C 1.9375 12.550781 1.800781 12.6875 1.625 12.6875 Z M 1.625 12.6875 "/>
</g>
</defs>
<g id="surface1">
<path style=" stroke:none;fill-rule:nonzero;fill:rgb(100%,100%,100%);fill-opacity:1;" d="M 15.5 6.125 C 15.5 9.230469 12.980469 11.75 9.875 11.75 C 6.769531 11.75 4.25 9.230469 4.25 6.125 C 4.25 3.019531 6.769531 0.5 9.875 0.5 C 12.980469 0.5 15.5 3.019531 15.5 6.125 Z M 15.5 6.125 "/>
<path style=" stroke:none;fill-rule:nonzero;fill:rgb(31.372549%,17.647059%,29.411765%);fill-opacity:1;" d="M 9.875 11.898438 C 6.6875 11.898438 4.101562 9.3125 4.101562 6.125 C 4.101562 2.9375 6.6875 0.351562 9.875 0.351562 C 13.0625 0.351562 15.648438 2.9375 15.648438 6.125 C 15.648438 9.3125 13.0625 11.898438 9.875 11.898438 Z M 9.875 0.648438 C 6.863281 0.648438 4.398438 3.113281 4.398438 6.125 C 4.398438 9.136719 6.863281 11.601562 9.875 11.601562 C 12.886719 11.601562 15.351562 9.148438 15.351562 6.125 C 15.351562 3.101562 12.886719 0.648438 9.875 0.648438 Z M 9.875 0.648438 "/>
<use xlink:href="#surface5" mask="url(#mask0)"/>
<path style=" stroke:none;fill-rule:nonzero;fill:rgb(31.372549%,17.647059%,29.411765%);fill-opacity:1;" d="M 7.085938 9.648438 C 6.914062 9.648438 6.75 9.585938 6.625 9.460938 L 6.539062 9.375 C 6.289062 9.125 6.289062 8.699219 6.539062 8.449219 L 12.199219 2.789062 C 12.324219 2.664062 12.488281 2.601562 12.664062 2.601562 C 12.835938 2.601562 13 2.664062 13.125 2.789062 L 13.210938 2.875 C 13.460938 3.125 13.460938 3.550781 13.210938 3.800781 L 7.550781 9.460938 C 7.425781 9.585938 7.261719 9.648438 7.085938 9.648438 Z M 12.664062 2.914062 C 12.574219 2.914062 12.488281 2.949219 12.425781 3.011719 L 6.761719 8.664062 C 6.625 8.800781 6.625 9.011719 6.761719 9.148438 L 6.851562 9.238281 C 6.976562 9.363281 7.199219 9.363281 7.335938 9.238281 L 13 3.574219 C 13.136719 3.4375 13.136719 3.226562 13 3.085938 L 12.914062 3 C 12.835938 2.949219 12.75 2.914062 12.664062 2.914062 Z M 12.664062 2.914062 "/>
<use xlink:href="#surface8" mask="url(#mask1)"/>
<path style=" stroke:none;fill-rule:nonzero;fill:rgb(87.843137%,45.490196%,63.921569%);fill-opacity:1;" d="M 12.375 15.5 L 3.625 15.5 C 1.898438 15.5 0.5 14.101562 0.5 12.375 C 0.5 10.648438 1.898438 9.25 3.625 9.25 L 12.375 9.25 C 14.101562 9.25 15.5 10.648438 15.5 12.375 C 15.5 14.101562 14.101562 15.5 12.375 15.5 Z M 12.375 15.5 "/>
<path style=" stroke:none;fill-rule:nonzero;fill:rgb(56.470588%,82.745098%,91.764706%);fill-opacity:1;" d="M 12.375 9.25 L 8 9.25 L 8 15.5 L 12.375 15.5 C 14.101562 15.5 15.5 14.101562 15.5 12.375 C 15.5 10.648438 14.101562 9.25 12.375 9.25 Z M 12.375 9.25 "/>
<path style=" stroke:none;fill-rule:nonzero;fill:rgb(31.372549%,17.647059%,29.411765%);fill-opacity:1;" d="M 12.375 15.648438 L 3.625 15.648438 C 1.8125 15.648438 0.351562 14.175781 0.351562 12.375 C 0.351562 10.574219 1.8125 9.101562 3.625 9.101562 L 12.375 9.101562 C 14.1875 9.101562 15.648438 10.574219 15.648438 12.375 C 15.648438 14.175781 14.1875 15.648438 12.375 15.648438 Z M 3.625 9.398438 C 1.988281 9.398438 0.648438 10.738281 0.648438 12.375 C 0.648438 14.011719 1.988281 15.351562 3.625 15.351562 L 12.375 15.351562 C 14.011719 15.351562 15.351562 14.011719 15.351562 12.375 C 15.351562 10.738281 14.011719 9.398438 12.375 9.398438 Z M 3.625 9.398438 "/>
<use xlink:href="#surface11" mask="url(#mask2)"/>
<path style=" stroke:none;fill-rule:nonzero;fill:rgb(31.372549%,17.647059%,29.411765%);fill-opacity:1;" d="M 7.851562 9.25 L 8.164062 9.25 L 8.164062 15.5 L 7.851562 15.5 Z M 7.851562 9.25 "/>
<use xlink:href="#surface14" mask="url(#mask3)"/>
</g>
</svg>
